<?xml version="1.0" encoding="utf-8"?>
<!-- Generator: Adobe Illustrator 23.1.0, SVG Export Plug-In . SVG Version: 6.00 Build 0)  -->
<svg version="1.1" id="Layer_2" xmlns="http://www.w3.org/2000/svg" xmlns:xlink="http://www.w3.org/1999/xlink" x="0px" y="0px"
	 viewBox="0 0 340.16 263.62" style="enable-background:new 0 0 340.16 263.62;" xml:space="preserve">
<style type="text/css">
	.st0{fill:url(#SVGID_1_);}
	.st1{fill:#1F5645;}
	.st2{fill:url(#SVGID_2_);}
	.st3{fill:url(#SVGID_3_);}
	.st4{fill:url(#SVGID_4_);}
	.st5{fill:url(#SVGID_5_);}
	.st6{fill:#201917;}
	.st7{fill:#FFFFFF;stroke:#FFFFFF;stroke-width:0.2383;stroke-miterlimit:10;}
	.st8{fill:url(#SVGID_6_);}
	.st9{fill:url(#SVGID_7_);}
	.st10{fill:url(#SVGID_8_);}
	.st11{fill:url(#SVGID_9_);}
	.st12{fill:url(#SVGID_10_);}
	.st13{fill:#575756;stroke:#FFFFFF;stroke-width:0.2383;stroke-miterlimit:10;}
</style>
<g>
	<g>
		<linearGradient id="SVGID_1_" gradientUnits="userSpaceOnUse" x1="168.5701" y1="101.3211" x2="218.6298" y2="101.3211">
			<stop  offset="0" style="stop-color:#2E5845"/>
			<stop  offset="3.582656e-03" style="stop-color:#2E5845"/>
			<stop  offset="0.4459" style="stop-color:#46816F"/>
			<stop  offset="0.793" style="stop-color:#559A89"/>
			<stop  offset="1" style="stop-color:#5BA393"/>
		</linearGradient>
		<path class="st0" d="M168.57,83.28l1.68,0l0.15,54.7l16.56-0.01l0.28-54.72l31.39-0.02V64.66l-1.89,0c0,0-47.75,17.78-47.75,17.79
			C168.98,82.45,168.57,83.28,168.57,83.28"/>
		<path class="st1" d="M173.47,70.97c-0.08-0.23-0.14-0.37-0.17-0.41c-0.03-0.04-0.09-0.05-0.17-0.03
			c-0.07,0.03-0.11,0.07-0.12,0.14c0,0.06,0.04,0.2,0.11,0.42l0.54,1.55c0.08,0.23,0.14,0.36,0.18,0.41
			c0.04,0.05,0.1,0.06,0.18,0.03c0.07-0.03,0.11-0.07,0.11-0.13c0-0.06-0.03-0.19-0.1-0.39L173.47,70.97z M172.77,69.99l0.1,0.34
			c0.05-0.17,0.13-0.31,0.23-0.41c0.1-0.11,0.22-0.19,0.37-0.24c0.18-0.06,0.35-0.07,0.51-0.02c0.16,0.05,0.28,0.13,0.36,0.24
			c0.07,0.11,0.16,0.32,0.27,0.61l0.55,1.57c0.12,0.34,0.18,0.59,0.19,0.75c0.01,0.16-0.03,0.3-0.13,0.43
			c-0.1,0.13-0.23,0.22-0.41,0.28c-0.14,0.05-0.28,0.06-0.43,0.04c-0.14-0.02-0.29-0.08-0.43-0.18l0.3,0.86l-1.14,0.39l-1.48-4.27
			L172.77,69.99z M171.68,74.96l0.21,0.6l-0.63,0.22l-0.21-0.6L171.68,74.96z M169.75,70.45l-0.11,0.39l-0.53,0.19l0.25-0.85
			l0.53-0.19l0.7,0.52l-0.51,0.18L169.75,70.45z M170.55,72.26l-0.1-0.27c-0.07-0.19-0.12-0.31-0.16-0.36
			c-0.04-0.05-0.09-0.06-0.16-0.04c-0.08,0.03-0.12,0.07-0.12,0.12c0,0.05,0.03,0.19,0.11,0.4l0.1,0.27L170.55,72.26z M171.91,72.47
			l-1.47,0.52l0.28,0.81c0.06,0.17,0.11,0.27,0.15,0.31c0.04,0.04,0.1,0.05,0.17,0.02c0.09-0.03,0.13-0.08,0.14-0.16
			c0.01-0.08-0.02-0.21-0.09-0.39l-0.17-0.49l1.08-0.38l0.1,0.28c0.08,0.23,0.13,0.41,0.14,0.55c0.01,0.13-0.01,0.29-0.06,0.47
			c-0.06,0.18-0.16,0.33-0.3,0.46c-0.14,0.13-0.33,0.24-0.58,0.32c-0.24,0.08-0.46,0.12-0.67,0.12c-0.21,0-0.38-0.05-0.53-0.13
			c-0.15-0.08-0.26-0.19-0.35-0.33c-0.09-0.13-0.18-0.34-0.28-0.61l-0.38-1.09c-0.11-0.33-0.16-0.6-0.14-0.82
			c0.02-0.22,0.11-0.41,0.28-0.59c0.17-0.17,0.38-0.3,0.64-0.39c0.32-0.11,0.6-0.14,0.85-0.1c0.25,0.05,0.45,0.16,0.61,0.33
			c0.15,0.17,0.29,0.44,0.42,0.8L171.91,72.47z M168.24,71.59l1.32,3.73l-1.17,0.42L167.07,72L168.24,71.59z M167.95,70.77
			l0.21,0.59l-1.17,0.41l-0.21-0.59L167.95,70.77z M164.85,71.89l0.38,1.02c0.06-0.13,0.14-0.23,0.24-0.32
			c0.1-0.09,0.21-0.15,0.34-0.2c0.2-0.07,0.38-0.08,0.56-0.03c0.18,0.05,0.3,0.13,0.38,0.25c0.08,0.12,0.18,0.35,0.31,0.7l0.94,2.56
			l-1.13,0.42l-0.96-2.61c-0.08-0.22-0.14-0.35-0.19-0.41c-0.04-0.05-0.1-0.07-0.18-0.04c-0.07,0.03-0.1,0.08-0.1,0.15
			c0,0.07,0.03,0.2,0.1,0.39l0.98,2.65l-1.13,0.42l-1.67-4.53L164.85,71.89z M162.84,74.66c-0.06-0.17-0.11-0.28-0.15-0.31
			c-0.04-0.04-0.09-0.05-0.16-0.02c-0.06,0.02-0.1,0.07-0.11,0.13c-0.01,0.06,0.02,0.17,0.08,0.33l0.46,1.25
			c0.06,0.17,0.11,0.27,0.15,0.31c0.04,0.04,0.09,0.05,0.16,0.03c0.07-0.03,0.11-0.08,0.11-0.14c0-0.07-0.04-0.21-0.12-0.42
			L162.84,74.66z M163.61,73.26l1.06,2.86c0.14,0.39,0.23,0.64,0.25,0.76c0.02,0.12,0,0.26-0.06,0.43
			c-0.06,0.17-0.18,0.32-0.34,0.46c-0.17,0.14-0.4,0.26-0.69,0.37c-0.36,0.13-0.67,0.18-0.94,0.14c-0.26-0.04-0.46-0.24-0.6-0.59
			l1.1-0.41c0.06,0.16,0.15,0.22,0.27,0.18c0.09-0.03,0.13-0.08,0.14-0.14c0.01-0.06-0.02-0.17-0.08-0.33l-0.1-0.28
			c-0.06,0.12-0.14,0.23-0.23,0.31c-0.09,0.08-0.19,0.15-0.31,0.19c-0.2,0.08-0.39,0.1-0.55,0.06c-0.16-0.03-0.29-0.11-0.39-0.22
			c-0.1-0.11-0.19-0.3-0.28-0.54l-0.5-1.35c-0.13-0.35-0.16-0.63-0.09-0.83c0.07-0.2,0.23-0.35,0.49-0.45
			c0.14-0.05,0.28-0.07,0.42-0.06c0.14,0.01,0.27,0.06,0.41,0.14l-0.02-0.31L163.61,73.26z M160.25,73.57l1.72,4.51l-1.03,0.39
			l-1.39-1.82l0.78,2.05l-0.98,0.37l-1.72-4.51l0.98-0.37l1.43,1.78l-0.78-2.03L160.25,73.57z M155.33,77.5
			c-0.07-0.17-0.12-0.27-0.15-0.31c-0.04-0.04-0.09-0.05-0.16-0.02c-0.06,0.02-0.1,0.07-0.11,0.13c-0.01,0.06,0.02,0.17,0.08,0.33
			l0.48,1.24c0.06,0.17,0.12,0.27,0.16,0.31c0.04,0.04,0.09,0.05,0.16,0.02c0.07-0.03,0.11-0.08,0.11-0.15
			c0-0.07-0.04-0.21-0.12-0.42L155.33,77.5z M156.08,76.08l1.09,2.84c0.15,0.38,0.23,0.64,0.26,0.75c0.02,0.12,0.01,0.26-0.05,0.43
			c-0.06,0.17-0.17,0.32-0.34,0.46c-0.17,0.14-0.4,0.27-0.69,0.38c-0.36,0.14-0.67,0.19-0.93,0.15c-0.26-0.04-0.47-0.23-0.61-0.59
			l1.09-0.42c0.06,0.16,0.15,0.22,0.27,0.18c0.09-0.03,0.13-0.08,0.14-0.14c0.01-0.06-0.02-0.17-0.08-0.33l-0.11-0.28
			c-0.06,0.12-0.14,0.23-0.23,0.31c-0.09,0.09-0.19,0.15-0.31,0.2c-0.2,0.08-0.39,0.1-0.55,0.07c-0.16-0.03-0.29-0.1-0.39-0.22
			c-0.1-0.11-0.2-0.29-0.29-0.54L153.85,78c-0.13-0.35-0.17-0.63-0.1-0.83c0.07-0.2,0.23-0.35,0.49-0.45
			c0.14-0.05,0.28-0.08,0.42-0.06c0.14,0.01,0.27,0.06,0.41,0.14l-0.03-0.31L156.08,76.08z M151.65,77.8l0.12,0.35
			c0.03-0.17,0.09-0.31,0.18-0.42c0.09-0.11,0.21-0.2,0.37-0.26c0.19-0.08,0.37-0.09,0.53-0.05c0.16,0.04,0.28,0.12,0.37,0.25
			c0.09,0.12,0.2,0.35,0.33,0.67l1.03,2.58l-1.12,0.45l-1.01-2.55c-0.1-0.25-0.17-0.4-0.21-0.45c-0.04-0.05-0.1-0.06-0.17-0.03
			c-0.08,0.03-0.12,0.08-0.11,0.16c0,0.07,0.06,0.25,0.17,0.52l0.99,2.48l-1.12,0.45l-1.46-3.68L151.65,77.8z M148.68,78.36
			l-0.1,0.4l-0.52,0.21l0.22-0.86l0.53-0.21l0.72,0.49l-0.51,0.2L148.68,78.36z M149.43,79.84c-0.07-0.19-0.13-0.3-0.17-0.34
			c-0.04-0.04-0.09-0.05-0.16-0.02c-0.07,0.03-0.1,0.07-0.1,0.13c0,0.06,0.03,0.18,0.11,0.37l0.66,1.66
			c0.07,0.17,0.13,0.28,0.17,0.33c0.04,0.04,0.1,0.05,0.16,0.03c0.07-0.03,0.1-0.07,0.1-0.12c0-0.06-0.03-0.17-0.09-0.32
			L149.43,79.84z M150.66,79.68l0.36,0.9c0.13,0.33,0.21,0.58,0.24,0.75c0.03,0.17,0.01,0.34-0.04,0.52
			c-0.06,0.18-0.16,0.33-0.3,0.46c-0.15,0.13-0.33,0.24-0.55,0.33c-0.25,0.1-0.47,0.15-0.66,0.17c-0.19,0.01-0.36-0.02-0.5-0.09
			c-0.14-0.07-0.26-0.18-0.36-0.32c-0.1-0.14-0.21-0.37-0.34-0.68l-0.37-0.94c-0.13-0.34-0.2-0.62-0.21-0.84
			c0-0.22,0.07-0.43,0.22-0.62c0.15-0.19,0.37-0.35,0.67-0.47c0.25-0.1,0.48-0.15,0.69-0.14c0.21,0,0.39,0.05,0.53,0.13
			c0.15,0.08,0.26,0.18,0.35,0.29C150.47,79.23,150.56,79.42,150.66,79.68z M147.68,80.69l-1.17,0.47l-0.31-0.78
			c-0.09-0.23-0.16-0.36-0.21-0.41c-0.05-0.05-0.11-0.05-0.2-0.02c-0.1,0.04-0.14,0.1-0.14,0.18c0,0.08,0.05,0.23,0.14,0.46
			l0.83,2.08c0.09,0.22,0.16,0.35,0.21,0.41c0.05,0.06,0.12,0.07,0.21,0.03c0.09-0.03,0.13-0.09,0.13-0.17
			c0-0.08-0.05-0.24-0.15-0.48l-0.22-0.56l1.17-0.47l0.07,0.17c0.18,0.46,0.28,0.81,0.3,1.02c0.01,0.22-0.07,0.45-0.23,0.68
			c-0.17,0.23-0.41,0.42-0.74,0.55c-0.34,0.14-0.65,0.19-0.92,0.15c-0.27-0.04-0.49-0.15-0.65-0.34c-0.16-0.19-0.33-0.51-0.5-0.94
			l-0.52-1.31c-0.13-0.32-0.21-0.57-0.26-0.74c-0.04-0.17-0.04-0.35,0.01-0.55c0.05-0.19,0.15-0.37,0.32-0.54
			c0.16-0.16,0.37-0.3,0.62-0.4c0.34-0.14,0.65-0.18,0.93-0.14c0.28,0.04,0.49,0.15,0.64,0.32c0.15,0.17,0.31,0.47,0.47,0.88
			L147.68,80.69z M141.17,82l0.12,0.34c0.02-0.17,0.08-0.31,0.17-0.43c0.09-0.12,0.21-0.21,0.36-0.27c0.19-0.08,0.36-0.1,0.52-0.06
			c0.16,0.04,0.28,0.12,0.38,0.24c0.09,0.12,0.21,0.34,0.34,0.66l1.08,2.55l-1.11,0.47l-1.07-2.52c-0.11-0.25-0.18-0.4-0.22-0.45
			c-0.04-0.05-0.1-0.06-0.17-0.02c-0.08,0.03-0.11,0.09-0.11,0.16c0.01,0.07,0.07,0.24,0.18,0.52l1.04,2.46l-1.11,0.47l-1.54-3.65
			L141.17,82z M138.88,81.94l-0.44,0.87l-0.43,0.19l0.12-0.73L138.88,81.94z M139.34,85.03c-0.12,0.21-0.18,0.36-0.17,0.46
			c0.01,0.1,0.05,0.23,0.12,0.4c0.08,0.19,0.15,0.3,0.19,0.35c0.05,0.04,0.11,0.05,0.18,0.02c0.07-0.03,0.1-0.07,0.11-0.12
			c0-0.05-0.04-0.17-0.12-0.35L139.34,85.03z M138.78,84.69l-1.04,0.45l-0.11-0.24c-0.12-0.28-0.18-0.51-0.19-0.69
			c0-0.18,0.07-0.37,0.21-0.57c0.14-0.2,0.37-0.37,0.68-0.51c0.37-0.16,0.68-0.22,0.93-0.17c0.25,0.05,0.43,0.16,0.55,0.34
			c0.12,0.18,0.31,0.56,0.57,1.16l0.79,1.82l-1.07,0.47l-0.14-0.32c-0.01,0.16-0.06,0.29-0.13,0.41c-0.08,0.11-0.19,0.2-0.34,0.26
			c-0.19,0.08-0.39,0.11-0.6,0.07c-0.21-0.04-0.39-0.24-0.55-0.61l-0.13-0.3c-0.12-0.27-0.16-0.47-0.11-0.61
			c0.04-0.14,0.2-0.34,0.49-0.62c0.3-0.3,0.45-0.48,0.46-0.54c0-0.06-0.03-0.17-0.09-0.32c-0.08-0.19-0.15-0.31-0.2-0.35
			c-0.05-0.05-0.11-0.05-0.18-0.03c-0.07,0.03-0.11,0.08-0.11,0.13c0,0.06,0.05,0.19,0.14,0.39L138.78,84.69z M136.61,83l1.4,4.66
			l-1.74,0.78l-2.64-4.11l1.21-0.54c0.68,1.15,1.24,2.13,1.68,2.94c-0.32-0.87-0.6-1.65-0.83-2.34l-0.29-0.85L136.61,83z
			 M133.17,87.23l0.35,0.76l-1.44,0.66l-0.35-0.76L133.17,87.23z M125.39,86.44l2.55-1.23l0.56,1.16l-1.05,0.51l0.53,1.1l0.93-0.45
			l0.53,1.1l-0.93,0.45l1.18,2.43l-1.51,0.73L125.39,86.44z M123.29,88.71l1.87,3.8c0.22-0.11,0.33-0.22,0.34-0.33
			c0.01-0.11-0.09-0.36-0.28-0.74l-1.11-2.24c-0.13-0.26-0.22-0.42-0.27-0.49c-0.05-0.06-0.12-0.1-0.19-0.11
			C123.58,88.59,123.46,88.62,123.29,88.71z M121.3,88.46l1.12-0.55c0.73-0.36,1.23-0.57,1.52-0.63c0.29-0.06,0.54-0.05,0.74,0.04
			c0.21,0.09,0.38,0.22,0.5,0.38c0.12,0.17,0.32,0.53,0.59,1.08l1,2.02c0.26,0.52,0.4,0.88,0.44,1.08c0.04,0.2,0.02,0.38-0.05,0.54
			c-0.07,0.16-0.19,0.3-0.35,0.43c-0.16,0.13-0.42,0.28-0.78,0.46l-1.89,0.93L121.3,88.46z M120.58,88.84l2.98,5.7l-1.3,0.68
			l-2.01-3.85l1.5,4.12l-0.92,0.48l-2.51-3.48l1.97,3.76l-1.3,0.68l-2.98-5.7l1.92-1c0.24,0.31,0.51,0.69,0.81,1.12l0.96,1.34
			l-1.06-2.84L120.58,88.84z"/>
		<g>
			<linearGradient id="SVGID_2_" gradientUnits="userSpaceOnUse" x1="136.487" y1="70.6178" x2="174.115" y2="67.1971">
				<stop  offset="0" style="stop-color:#E28D04"/>
				<stop  offset="1" style="stop-color:#FAB900"/>
			</linearGradient>
			<polygon class="st2" points="156.03,72.68 177.97,64.66 159.94,64.63 155.94,72.71 			"/>
			<linearGradient id="SVGID_3_" gradientUnits="userSpaceOnUse" x1="136.7681" y1="73.7085" x2="174.396" y2="70.2878">
				<stop  offset="0" style="stop-color:#E28D04"/>
				<stop  offset="1" style="stop-color:#FAB900"/>
			</linearGradient>
			<polygon class="st3" points="127.82,81.69 127.93,81.66 119.3,64.66 101.51,64.66 113.44,88.09 			"/>
			<linearGradient id="SVGID_4_" gradientUnits="userSpaceOnUse" x1="140.2977" y1="112.535" x2="177.9257" y2="109.1143">
				<stop  offset="0" style="stop-color:#E28D04"/>
				<stop  offset="1" style="stop-color:#FAB900"/>
			</linearGradient>
			<polygon class="st4" points="145.56,93.78 139.88,105.19 133.04,91.71 118.88,98.77 139.9,140.05 168.99,82.44 			"/>
		</g>
		<linearGradient id="SVGID_5_" gradientUnits="userSpaceOnUse" x1="102.7757" y1="96.6393" x2="241.7924" y2="96.6393">
			<stop  offset="0" style="stop-color:#E08309"/>
			<stop  offset="0.1854" style="stop-color:#E48A08"/>
			<stop  offset="0.4626" style="stop-color:#ED9F04"/>
			<stop  offset="0.7318" style="stop-color:#FAB900"/>
		</linearGradient>
		<path class="st5" d="M113.59,138.68c0,0-15.15-5.08-12.09-13.57c3.06-8.49,13.64-14.89,22.55-20.6
			c8.91-5.71,35.63-19.35,50.1-25.05c14.47-5.71,50.7-19.1,77.54-24.86c0,0-31.89,6.07-58.33,14.56
			c-26.44,8.49-47.74,16.7-61.51,23.1c-13.78,6.4-29.5,15.45-39.8,26.16C81.74,129.14,95.21,138.48,113.59,138.68z"/>
	</g>
	<g>
		<path class="st6" d="M54.14,159.49l3.52,8.86l3.54-8.86h4.12l-6.22,14.58h-2.95l-6.13-14.58H54.14z"/>
		<path class="st6" d="M70.55,159.49v14.58h-3.79v-14.58H70.55z"/>
		<path class="st6" d="M81.81,162.7H77.3v2.44h4.28v3.21H77.3v2.51h4.51v3.21h-8.3v-14.58h8.3V162.7z"/>
		<path class="st6" d="M90.43,162.7v11.37h-3.79V162.7h-3.13v-3.21h10.06v3.21H90.43z"/>
		<path class="st6" d="M108.34,162.7v11.37h-3.79V162.7h-3.13v-3.21h10.06v3.21H108.34z"/>
		<path class="st6" d="M117.11,165.12h5.48v-5.63h3.79v14.58h-3.79v-5.98h-5.48v5.98h-3.79v-14.58h3.79V165.12z"/>
		<path class="st6" d="M138.28,171.54h-5.22l-1,2.53h-4.03l5.61-14.58h4.14l5.5,14.58h-4.04L138.28,171.54z M137.26,168.64
			l-1.55-4.65h-0.04l-1.57,4.65H137.26z"/>
		<path class="st6" d="M148.71,159.49v14.58h-3.79v-14.58H148.71z"/>
		<path class="st6" d="M157.92,174.07l2.47-14.58h3.73l2.97,7.8l3.12-7.8h3.77l2.2,14.58h-3.79l-1.07-8.39l-0.03,0l-3.5,8.39h-1.5
			l-3.35-8.39l-0.05,0l-1.21,8.4H157.92z"/>
		<path class="st6" d="M178.28,174.07v-14.58h5.37c2.06,0,3.81,0.7,5.25,2.11c1.44,1.4,2.16,3.13,2.16,5.18
			c0,2.05-0.72,3.77-2.17,5.18c-1.44,1.41-3.19,2.11-5.25,2.11H178.28z M182.07,162.7v8.16h0.86c1.29,0,2.31-0.36,3.06-1.08
			c0.75-0.72,1.13-1.72,1.13-3c0-1.27-0.37-2.26-1.12-2.99c-0.75-0.73-1.76-1.09-3.03-1.09H182.07z"/>
		<path class="st6" d="M201.68,162.7h-4.59v2.44h4.16v3.21h-4.16v5.72h-3.79v-14.58h8.38V162.7z"/>
		<path class="st6" d="M221.82,159.84v4.54c-0.79-1.07-1.9-1.61-3.32-1.61c-1.15,0-2.09,0.38-2.81,1.15
			c-0.72,0.77-1.08,1.73-1.08,2.89c0,1.17,0.36,2.12,1.1,2.86c0.73,0.74,1.68,1.1,2.85,1.1c1.32,0,2.4-0.52,3.27-1.55v4.54
			c-1.47,0.45-2.58,0.68-3.34,0.68c-2.18,0-4.03-0.73-5.53-2.18c-1.52-1.47-2.29-3.3-2.29-5.48c0-2.08,0.72-3.86,2.15-5.33
			c1.54-1.57,3.38-2.36,5.54-2.36C219.48,159.1,220.63,159.35,221.82,159.84z"/>
		<path class="st6" d="M231.97,159.01c2.18,0,4.06,0.7,5.63,2.09c1.62,1.45,2.44,3.25,2.44,5.41c0,2.36-0.75,4.29-2.26,5.79
			c-1.51,1.5-3.44,2.25-5.8,2.25s-4.29-0.75-5.8-2.25c-1.51-1.5-2.26-3.43-2.26-5.79c0-2.15,0.82-3.95,2.46-5.4
			C227.94,159.71,229.81,159.01,231.97,159.01z M231.97,162.68c-1.08,0-2.02,0.37-2.84,1.1c-0.85,0.76-1.27,1.67-1.27,2.74
			c0,1.21,0.38,2.23,1.14,3.06c0.79,0.86,1.78,1.29,2.97,1.29c1.2,0,2.19-0.43,2.97-1.29c0.76-0.83,1.14-1.85,1.14-3.06
			c0-1.07-0.42-1.98-1.27-2.74C233.99,163.05,233.04,162.68,231.97,162.68z"/>
		<path class="st6" d="M244.36,169.93c0.63,0,1.16,0.22,1.61,0.66c0.44,0.44,0.66,0.97,0.66,1.6c0,0.63-0.22,1.16-0.66,1.61
			c-0.44,0.44-0.98,0.66-1.61,0.66c-0.63,0-1.16-0.22-1.6-0.66c-0.44-0.44-0.66-0.98-0.66-1.61c0-0.63,0.22-1.16,0.66-1.6
			C243.19,170.15,243.73,169.93,244.36,169.93z"/>
		<path class="st6" d="M251.08,170.38h3.31l-3.56,6.42h-2.27L251.08,170.38z"/>
		<path class="st6" d="M260.28,159.49v11.37h4.55v3.21h-8.34v-14.58H260.28z"/>
		<path class="st6" d="M272.36,162.7v11.37h-3.79V162.7h-3.13v-3.21h10.06v3.21H272.36z"/>
		<path class="st6" d="M277.35,174.07v-14.58h5.37c2.06,0,3.81,0.7,5.25,2.11c1.44,1.4,2.16,3.13,2.16,5.18
			c0,2.05-0.72,3.77-2.17,5.18c-1.44,1.41-3.19,2.11-5.25,2.11H277.35z M281.13,162.7v8.16h0.86c1.29,0,2.31-0.36,3.06-1.08
			c0.75-0.72,1.13-1.72,1.13-3c0-1.27-0.37-2.26-1.12-2.99c-0.75-0.73-1.76-1.09-3.03-1.09H281.13z"/>
	</g>
	<g>
		<rect x="48.33" y="184.17" class="st6" width="243.5" height="0.79"/>
	</g>
	<g>
		<rect x="48.33" y="208.23" class="st6" width="243.5" height="0.79"/>
	</g>
	<g>
		<path class="st13" d="M75.8,187.72l-2.23,14.14l-9.55-12.22l-1.88,11.77l-0.86,0l2.2-13.87l9.58,12.14l1.89-11.96L75.8,187.72z"/>
		<path class="st13" d="M85.66,193.02l-1.33,8.39l-0.81,0l0.24-1.51l-0.04,0c-0.38,0.52-0.88,0.93-1.52,1.23
			c-0.64,0.3-1.29,0.45-1.96,0.45c-1.09,0-1.95-0.33-2.57-0.98c-0.62-0.65-0.94-1.53-0.94-2.62c0-0.24,0.02-0.52,0.07-0.84
			c0.19-1.27,0.73-2.31,1.6-3.11c0.87-0.81,1.94-1.21,3.2-1.21c1.43,0,2.41,0.54,2.96,1.63l0.04,0l0.25-1.45L85.66,193.02z
			 M81.46,193.62c-1.09,0-2,0.42-2.74,1.27c-0.74,0.85-1.11,1.83-1.11,2.94c0,0.87,0.24,1.57,0.72,2.11
			c0.51,0.58,1.19,0.87,2.05,0.87c1.15,0,2.1-0.45,2.86-1.36c0.72-0.84,1.09-1.85,1.09-3.02c0-0.86-0.26-1.54-0.79-2.05
			C83,193.88,82.31,193.62,81.46,193.62z M79.56,191.68l2.31-1.54l1.78,1.54l-0.47,0.44l-1.45-1.09l-1.85,1.09L79.56,191.68z"/>
		<path class="st13" d="M89.72,193.02l-0.21,1.31l0.04,0c0.68-0.99,1.59-1.49,2.73-1.49c1.54,0,2.31,0.76,2.31,2.29
			c0,0.35-0.04,0.76-0.11,1.22l-0.8,5.07l-0.81,0l0.8-5.07c0.07-0.46,0.1-0.84,0.1-1.14c0-1.06-0.56-1.59-1.69-1.59
			c-1.64,0-2.65,1.22-3.04,3.65l-0.65,4.14l-0.81,0l1.33-8.39L89.72,193.02z"/>
		<path class="st13" d="M105.76,193.02l-1.27,7.99c-0.13,0.87-0.27,1.49-0.4,1.85c-0.22,0.64-0.55,1.21-1,1.71
			c-0.96,1.08-2.16,1.62-3.6,1.62c-1.05,0-1.9-0.26-2.54-0.78c-0.7-0.56-1.05-1.35-1.05-2.38c0-0.15,0.01-0.29,0.04-0.44h0.82
			c0,0.13,0,0.26,0,0.38c0,0.76,0.28,1.36,0.85,1.8c0.53,0.42,1.18,0.63,1.95,0.63c2.28,0,3.66-1.47,4.13-4.41l0.16-1.03l-0.04,0
			c-0.99,1.09-2.17,1.63-3.54,1.63c-1.04,0-1.87-0.34-2.5-1.02c-0.62-0.68-0.93-1.54-0.93-2.6c0-0.22,0.02-0.48,0.07-0.78
			c0.19-1.25,0.74-2.29,1.65-3.11c0.9-0.83,1.98-1.24,3.23-1.24c1.3,0,2.27,0.54,2.91,1.63l0.04,0l0.21-1.45L105.76,193.02z
			 M101.56,193.62c-1.09,0-2.01,0.44-2.77,1.32c-0.72,0.83-1.09,1.79-1.09,2.89c0,0.86,0.25,1.57,0.75,2.13
			c0.5,0.57,1.17,0.85,2.02,0.85c1.15,0,2.1-0.45,2.86-1.36c0.72-0.84,1.09-1.85,1.09-3.02c0-0.86-0.26-1.54-0.79-2.05
			C103.11,193.88,102.42,193.62,101.56,193.62z"/>
		<path class="st13" d="M115.9,193.8l-1.19,7.61l-0.8,0l1.17-7.61h-0.92l0.11-0.78h0.92l0.47-3l0.8,0l-0.46,3h1.47l-0.11,0.78H115.9
			z"/>
		<path class="st13" d="M126.72,193.02l-1.33,8.39l-0.81,0l0.24-1.51l-0.04,0c-0.38,0.52-0.88,0.93-1.52,1.23
			c-0.64,0.3-1.29,0.45-1.96,0.45c-1.09,0-1.95-0.33-2.57-0.98c-0.62-0.65-0.94-1.53-0.94-2.62c0-0.24,0.02-0.52,0.07-0.84
			c0.19-1.27,0.73-2.31,1.6-3.11c0.87-0.81,1.94-1.21,3.2-1.21c1.43,0,2.41,0.54,2.96,1.63l0.04,0l0.25-1.45L126.72,193.02z
			 M120.75,190.39l-0.09,0.64l-2.38-2.42h1.29L120.75,190.39z M122.52,193.62c-1.09,0-2,0.42-2.74,1.27
			c-0.74,0.85-1.11,1.83-1.11,2.94c0,0.87,0.24,1.57,0.72,2.11c0.51,0.58,1.19,0.87,2.05,0.87c1.15,0,2.1-0.45,2.86-1.36
			c0.72-0.84,1.09-1.85,1.09-3.02c0-0.86-0.26-1.54-0.79-2.05C124.06,193.88,123.37,193.62,122.52,193.62z M120.64,191.68l2.31-1.54
			l1.78,1.54l-0.47,0.44l-1.45-1.09l-1.85,1.09L120.64,191.68z"/>
		<path class="st13" d="M130.78,193.02l-0.17,1.05l0.04,0c0.53-0.82,1.3-1.23,2.31-1.23c1.12,0,1.82,0.51,2.11,1.53
			c0.63-1.02,1.53-1.53,2.71-1.53c1.45,0,2.18,0.71,2.18,2.14c0,0.31-0.04,0.7-0.11,1.16l-0.84,5.27l-0.81,0l0.85-5.38
			c0.06-0.37,0.08-0.69,0.08-0.94c0-0.99-0.5-1.48-1.51-1.48c-1.44,0-2.32,0.99-2.63,2.96l-0.76,4.83l-0.81,0l0.82-5.18
			c0.06-0.38,0.08-0.71,0.08-0.97c0-1.09-0.52-1.64-1.55-1.64c-1.39,0-2.26,1.06-2.6,3.18l-0.73,4.61l-0.81,0l1.33-8.39
			L130.78,193.02z"/>
		<path class="st13" d="M151.54,186.43l-1.63,10.15l4.02-3.55H155l-4.12,3.64l3.97,4.75h-1.06l-3.48-4.19l-0.55,0.46l-0.59,3.72
			l-0.81,0l2.38-14.98L151.54,186.43z"/>
		<path class="st13" d="M158.94,186.43l0.81,0l-1.25,7.9h0.04c0.68-0.99,1.59-1.49,2.73-1.49c1.54,0,2.31,0.76,2.31,2.29
			c0,0.35-0.04,0.76-0.11,1.22l-0.8,5.07l-0.81,0l0.8-5.07c0.07-0.46,0.1-0.84,0.1-1.14c0-1.06-0.56-1.59-1.69-1.59
			c-1.64,0-2.65,1.22-3.04,3.65l-0.66,4.14l-0.81,0L158.94,186.43z"/>
		<path class="st13" d="M170.81,192.84c1.11,0,2.02,0.33,2.72,0.99c0.7,0.66,1.05,1.55,1.05,2.66c0,1.53-0.61,2.8-1.82,3.83
			c-0.99,0.85-2.11,1.27-3.36,1.27c-1.09,0-1.98-0.35-2.68-1.04c-0.7-0.69-1.04-1.57-1.04-2.65c0-1.38,0.51-2.57,1.53-3.57
			C168.24,193.34,169.43,192.84,170.81,192.84z M170.63,193.62c-1.13,0-2.1,0.41-2.89,1.24c-0.8,0.83-1.19,1.8-1.19,2.94
			c0,0.88,0.27,1.6,0.81,2.17c0.54,0.57,1.25,0.85,2.13,0.85c1.06,0,1.98-0.34,2.77-1.01c0.79-0.67,1.26-1.53,1.42-2.57
			c0.04-0.24,0.05-0.44,0.05-0.6c0-0.93-0.29-1.66-0.86-2.2C172.31,193.89,171.56,193.62,170.63,193.62z M168.82,191.68l2.31-1.54
			l1.78,1.54l-0.47,0.44l-1.45-1.09l-1.85,1.09L168.82,191.68z"/>
		<path class="st13" d="M178.43,193.02l-0.21,1.31l0.04,0c0.68-0.99,1.59-1.49,2.73-1.49c1.54,0,2.31,0.76,2.31,2.29
			c0,0.35-0.04,0.76-0.11,1.22l-0.8,5.07l-0.81,0l0.8-5.07c0.07-0.46,0.1-0.84,0.1-1.14c0-1.06-0.56-1.59-1.69-1.59
			c-1.64,0-2.65,1.22-3.04,3.65l-0.65,4.14l-0.81,0l1.33-8.39L178.43,193.02z"/>
		<path class="st13" d="M194.48,193.02l-1.27,7.99c-0.13,0.87-0.27,1.49-0.4,1.85c-0.22,0.64-0.55,1.21-1,1.71
			c-0.96,1.08-2.16,1.62-3.6,1.62c-1.05,0-1.9-0.26-2.54-0.78c-0.7-0.56-1.05-1.35-1.05-2.38c0-0.15,0.01-0.29,0.04-0.44h0.82
			c0,0.13,0,0.26,0,0.38c0,0.76,0.28,1.36,0.85,1.8c0.53,0.42,1.18,0.63,1.95,0.63c2.28,0,3.66-1.47,4.13-4.41l0.16-1.03l-0.04,0
			c-0.99,1.09-2.17,1.63-3.54,1.63c-1.04,0-1.87-0.34-2.5-1.02c-0.62-0.68-0.93-1.54-0.93-2.6c0-0.22,0.02-0.48,0.07-0.78
			c0.19-1.25,0.74-2.29,1.65-3.11c0.9-0.83,1.98-1.24,3.23-1.24c1.3,0,2.27,0.54,2.91,1.63l0.04,0l0.21-1.45L194.48,193.02z
			 M190.27,193.62c-1.09,0-2.01,0.44-2.77,1.32c-0.72,0.83-1.09,1.79-1.09,2.89c0,0.86,0.25,1.57,0.75,2.13
			c0.5,0.57,1.17,0.85,2.02,0.85c1.15,0,2.1-0.45,2.86-1.36c0.72-0.84,1.09-1.85,1.09-3.02c0-0.86-0.26-1.54-0.79-2.05
			C191.82,193.88,191.13,193.62,190.27,193.62z"/>
		<path class="st13" d="M211.31,193.02l-1.27,7.99c-0.13,0.87-0.27,1.49-0.4,1.85c-0.22,0.64-0.55,1.21-1,1.71
			c-0.96,1.08-2.16,1.62-3.6,1.62c-1.05,0-1.9-0.26-2.54-0.78c-0.7-0.56-1.05-1.35-1.05-2.38c0-0.15,0.01-0.29,0.04-0.44h0.82
			c0,0.13,0,0.26,0,0.38c0,0.76,0.28,1.36,0.85,1.8c0.53,0.42,1.18,0.63,1.95,0.63c2.28,0,3.66-1.47,4.13-4.41l0.16-1.03l-0.04,0
			c-0.99,1.09-2.17,1.63-3.54,1.63c-1.04,0-1.87-0.34-2.5-1.02c-0.62-0.68-0.93-1.54-0.93-2.6c0-0.22,0.02-0.48,0.07-0.78
			c0.19-1.25,0.74-2.29,1.65-3.11c0.9-0.83,1.98-1.24,3.23-1.24c1.3,0,2.27,0.54,2.91,1.63l0.04,0l0.21-1.45L211.31,193.02z
			 M207.11,193.62c-1.09,0-2.01,0.44-2.77,1.32c-0.72,0.83-1.09,1.79-1.09,2.89c0,0.86,0.25,1.57,0.75,2.13
			c0.5,0.57,1.17,0.85,2.02,0.85c1.15,0,2.1-0.45,2.86-1.36c0.72-0.84,1.09-1.85,1.09-3.02c0-0.86-0.26-1.54-0.79-2.05
			C208.65,193.88,207.96,193.62,207.11,193.62z"/>
		<path class="st13" d="M215.68,193.02l-1.33,8.39l-0.81,0l1.33-8.39L215.68,193.02z M215.85,189.48c0.21,0,0.37,0.07,0.49,0.22
			c0.12,0.15,0.17,0.32,0.15,0.53c-0.02,0.21-0.12,0.38-0.3,0.53c-0.18,0.15-0.37,0.22-0.57,0.22c-0.21,0-0.37-0.07-0.49-0.22
			c-0.12-0.15-0.16-0.32-0.13-0.53C215.08,189.73,215.37,189.48,215.85,189.48z"/>
		<path class="st13" d="M226.64,193.02l-1.33,8.39l-0.81,0l0.24-1.51l-0.04,0c-0.38,0.52-0.88,0.93-1.52,1.23
			c-0.64,0.3-1.29,0.45-1.96,0.45c-1.07,0-1.92-0.33-2.56-0.99c-0.64-0.66-0.95-1.53-0.95-2.61c0-0.24,0.02-0.52,0.07-0.84
			c0.19-1.27,0.73-2.31,1.6-3.11c0.87-0.81,1.94-1.21,3.2-1.21c1.42,0,2.41,0.54,2.98,1.63l0.04,0l0.23-1.45L226.64,193.02z
			 M222.43,193.62c-1.09,0-2.01,0.44-2.77,1.32c-0.72,0.83-1.09,1.79-1.09,2.89c0,0.86,0.25,1.57,0.75,2.13
			c0.5,0.57,1.17,0.85,2.02,0.85c1.15,0,2.1-0.45,2.86-1.36c0.72-0.84,1.09-1.85,1.09-3.02c0-0.86-0.26-1.54-0.79-2.05
			C223.98,193.88,223.29,193.62,222.43,193.62z"/>
		<path class="st13" d="M230.7,193.02l-0.21,1.31l0.04,0c0.68-0.99,1.59-1.49,2.73-1.49c1.54,0,2.31,0.76,2.31,2.29
			c0,0.35-0.04,0.76-0.11,1.22l-0.8,5.07l-0.81,0l0.8-5.07c0.07-0.46,0.1-0.84,0.1-1.14c0-1.06-0.56-1.59-1.69-1.59
			c-1.64,0-2.65,1.22-3.04,3.65l-0.65,4.14l-0.81,0l1.33-8.39L230.7,193.02z"/>
		<path class="st13" d="M249.38,194.19l-0.76,0.36c-0.19-0.62-0.64-0.93-1.33-0.93c-0.38,0-0.73,0.13-1.05,0.38
			c-0.33,0.25-0.52,0.56-0.58,0.92c-0.08,0.56,0.17,0.97,0.76,1.23l1.74,0.76c0.64,0.37,0.96,0.91,0.96,1.61
			c0,0.94-0.37,1.72-1.11,2.32c-0.61,0.5-1.29,0.74-2.05,0.74c-0.7,0-1.28-0.2-1.74-0.59c-0.46-0.39-0.72-0.94-0.78-1.63l0.84-0.25
			c0.17,1.13,0.77,1.69,1.82,1.69c0.58,0,1.1-0.21,1.54-0.64c0.45-0.43,0.67-0.93,0.67-1.51c0-0.57-0.47-1.03-1.4-1.38
			c-0.65-0.24-1.13-0.48-1.43-0.71c-0.45-0.34-0.67-0.77-0.67-1.29c0-0.7,0.26-1.28,0.79-1.75c0.53-0.47,1.15-0.7,1.86-0.7
			c0.42,0,0.82,0.12,1.19,0.37C249.01,193.46,249.25,193.79,249.38,194.19z"/>
		<path class="st13" d="M256.17,192.84c1.11,0,2.02,0.33,2.72,0.99c0.7,0.66,1.05,1.55,1.05,2.66c0,1.53-0.61,2.8-1.82,3.83
			c-0.99,0.85-2.11,1.27-3.36,1.27c-1.09,0-1.98-0.35-2.68-1.04c-0.7-0.69-1.04-1.57-1.04-2.65c0-1.38,0.51-2.57,1.53-3.57
			C253.59,193.34,254.79,192.84,256.17,192.84z M255.98,193.62c-1.13,0-2.1,0.41-2.89,1.24c-0.8,0.83-1.19,1.8-1.19,2.94
			c0,0.88,0.27,1.6,0.81,2.17c0.54,0.57,1.25,0.85,2.13,0.85c1.06,0,1.98-0.34,2.77-1.01c0.79-0.67,1.26-1.53,1.42-2.57
			c0.04-0.24,0.05-0.44,0.05-0.6c0-0.93-0.29-1.66-0.86-2.2C257.66,193.89,256.91,193.62,255.98,193.62z M254.17,191.68l2.31-1.54
			l1.78,1.54l-0.47,0.44l-1.45-1.09l-1.85,1.09L254.17,191.68z M259.35,188.61h1.29l-2.38,2.42l-0.09-0.64L259.35,188.61z"/>
		<path class="st13" d="M263.79,193.02l-0.21,1.31l0.04,0c0.68-0.99,1.59-1.49,2.73-1.49c1.54,0,2.31,0.76,2.31,2.29
			c0,0.35-0.04,0.76-0.11,1.22l-0.8,5.07l-0.81,0l0.8-5.07c0.07-0.46,0.1-0.84,0.1-1.14c0-1.06-0.56-1.59-1.69-1.59
			c-1.64,0-2.65,1.22-3.04,3.65l-0.65,4.14l-0.81,0l1.33-8.39L263.79,193.02z"/>
		<path class="st13" d="M279.83,193.02l-1.27,7.99c-0.13,0.87-0.27,1.49-0.4,1.85c-0.22,0.64-0.55,1.21-1,1.71
			c-0.96,1.08-2.16,1.62-3.6,1.62c-1.05,0-1.9-0.26-2.54-0.78c-0.7-0.56-1.05-1.35-1.05-2.38c0-0.15,0.01-0.29,0.04-0.44h0.82
			c0,0.13,0,0.26,0,0.38c0,0.76,0.28,1.36,0.85,1.8c0.53,0.42,1.18,0.63,1.95,0.63c2.28,0,3.66-1.47,4.13-4.41l0.16-1.03l-0.04,0
			c-0.99,1.09-2.17,1.63-3.54,1.63c-1.04,0-1.87-0.34-2.5-1.02c-0.62-0.68-0.93-1.54-0.93-2.6c0-0.22,0.02-0.48,0.07-0.78
			c0.19-1.25,0.74-2.29,1.65-3.11c0.9-0.83,1.98-1.24,3.23-1.24c1.3,0,2.27,0.54,2.91,1.63l0.04,0l0.21-1.45L279.83,193.02z
			 M275.63,193.62c-1.09,0-2.01,0.44-2.77,1.32c-0.72,0.83-1.09,1.79-1.09,2.89c0,0.86,0.25,1.57,0.75,2.13
			c0.5,0.57,1.17,0.85,2.02,0.85c1.15,0,2.1-0.45,2.86-1.36c0.72-0.84,1.09-1.85,1.09-3.02c0-0.86-0.26-1.54-0.79-2.05
			C277.17,193.88,276.48,193.62,275.63,193.62z"/>
	</g>
</g>
</svg>
